<?xml version="1.0" encoding="UTF-8"?>
<svg width="514px" height="514px" viewBox="0 0 514 514" version="1.1" xmlns="http://www.w3.org/2000/svg" xmlns:xlink="http://www.w3.org/1999/xlink">
    <!-- Generator: Sketch 50.2 (55047) - http://www.bohemiancoding.com/sketch -->
    <title>Untitled</title>
    <desc>Created with Sketch.</desc>
    <defs></defs>
    <g id="Page-1" stroke="none" stroke-width="1" fill="none" fill-rule="evenodd">
        <g id="close-hover">
            <circle id="Oval" fill="#D8D8D8" cx="251.5" cy="266.5" r="211.5"></circle>
            <path d="M75.966,438.013 C-24.004,338.043 -24.004,175.947 75.966,75.976 C175.968,-23.994 338.033,-23.994 438.034,75.976 C538.004,175.947 538.004,338.043 438.034,438.013 C338.033,537.998 175.968,537.998 75.966,438.013 Z M392.783,121.227 C317.782,46.242 196.218,46.242 121.248,121.227 C46.247,196.212 46.247,317.777 121.248,392.762 C196.218,467.748 317.782,467.748 392.783,392.762 C467.754,317.776 467.754,196.212 392.783,121.227 Z M189.124,370.137 L143.873,324.871 L211.749,256.994 L143.873,189.118 L189.124,143.851 L257,211.743 L324.877,143.851 L370.127,189.118 L302.251,256.994 L370.127,324.871 L324.877,370.137 L257,302.245 L189.124,370.137 Z" id="Shape" fill="#FFFFFF" fill-rule="nonzero"></path>
        </g>
    </g>
</svg>